<mxfile modified="2024-02-06T12:12:14.598Z" host="app.diagrams.net" agent="Mozilla/5.0 (Windows NT 10.0; Win64; x64) AppleWebKit/537.36 (KHTML, like Gecko) Chrome/121.0.0.0 Safari/537.36" etag="DdMI8lD4K9-zSFPLqgFj" version="23.1.1" type="github">
  <diagram id="Ht1M8jgEwFfnCIfOTk4-" name="Page-1">
    <mxGraphModel dx="1434" dy="746" grid="1" gridSize="10" guides="1" tooltips="1" connect="1" arrows="1" fold="1" page="1" pageScale="1" pageWidth="1169" pageHeight="827" math="0" shadow="0">
      <root>
        <mxCell id="0" />
        <mxCell id="1" parent="0" />
        <mxCell id="-QjtrjUzRDEMRZ5MF8oH-1" value="" style="outlineConnect=0;fontColor=#232F3E;gradientColor=none;fillColor=#277116;strokeColor=none;dashed=0;verticalLabelPosition=bottom;verticalAlign=top;align=center;html=1;fontSize=12;fontStyle=0;aspect=fixed;pointerEvents=1;shape=mxgraph.aws4.door_lock;" parent="1" vertex="1">
          <mxGeometry x="341.5" y="578.5" width="78" height="78" as="geometry" />
        </mxCell>
        <mxCell id="-QjtrjUzRDEMRZ5MF8oH-8" value="" style="outlineConnect=0;fontColor=#232F3E;gradientColor=none;fillColor=#277116;strokeColor=none;dashed=0;verticalLabelPosition=bottom;verticalAlign=top;align=center;html=1;fontSize=12;fontStyle=0;aspect=fixed;pointerEvents=1;shape=mxgraph.aws4.thermostat;" parent="1" vertex="1">
          <mxGeometry x="500" y="578.5" width="78" height="78" as="geometry" />
        </mxCell>
        <mxCell id="-QjtrjUzRDEMRZ5MF8oH-9" value="1" style="rounded=1;whiteSpace=wrap;html=1;fillColor=#007CBD;strokeColor=none;fontColor=#FFFFFF;fontStyle=1;fontSize=22;" parent="1" vertex="1">
          <mxGeometry x="223.5" y="211.5" width="40" height="38" as="geometry" />
        </mxCell>
        <mxCell id="-QjtrjUzRDEMRZ5MF8oH-18" value="ML Model Executable" style="outlineConnect=0;fontColor=#232F3E;gradientColor=none;fillColor=#116D5B;strokeColor=none;dashed=0;verticalLabelPosition=bottom;verticalAlign=top;align=center;html=1;fontSize=12;fontStyle=0;aspect=fixed;pointerEvents=1;shape=mxgraph.aws4.sagemaker_model;" parent="1" vertex="1">
          <mxGeometry x="136.5" y="691.5" width="78" height="78" as="geometry" />
        </mxCell>
        <mxCell id="-QjtrjUzRDEMRZ5MF8oH-19" value="AWS IoT Greengrass Core" style="outlineConnect=0;fontColor=#232F3E;gradientColor=#60A337;gradientDirection=north;fillColor=#277116;strokeColor=#ffffff;dashed=0;verticalLabelPosition=bottom;verticalAlign=top;align=center;html=1;fontSize=12;fontStyle=0;aspect=fixed;shape=mxgraph.aws4.resourceIcon;resIcon=mxgraph.aws4.iot_core;" parent="1" vertex="1">
          <mxGeometry x="137.5" y="796" width="78" height="78" as="geometry" />
        </mxCell>
        <mxCell id="-QjtrjUzRDEMRZ5MF8oH-20" value="Video Camera" style="outlineConnect=0;fontColor=#232F3E;gradientColor=none;fillColor=#277116;strokeColor=none;dashed=0;verticalLabelPosition=bottom;verticalAlign=top;align=center;html=1;fontSize=12;fontStyle=0;aspect=fixed;pointerEvents=1;shape=mxgraph.aws4.camera;" parent="1" vertex="1">
          <mxGeometry x="137.5" y="903.5" width="78" height="78" as="geometry" />
        </mxCell>
        <mxCell id="-QjtrjUzRDEMRZ5MF8oH-21" value="AWS IoT Core" style="outlineConnect=0;fontColor=#232F3E;gradientColor=#60A337;gradientDirection=north;fillColor=#277116;strokeColor=#ffffff;dashed=0;verticalLabelPosition=bottom;verticalAlign=top;align=center;html=1;fontSize=12;fontStyle=0;aspect=fixed;shape=mxgraph.aws4.resourceIcon;resIcon=mxgraph.aws4.internet_of_things;" parent="1" vertex="1">
          <mxGeometry x="352.5" y="711.5" width="78" height="78" as="geometry" />
        </mxCell>
        <mxCell id="-QjtrjUzRDEMRZ5MF8oH-22" value="AWS IoT Analytics" style="outlineConnect=0;fontColor=#232F3E;gradientColor=#60A337;gradientDirection=north;fillColor=#277116;strokeColor=#ffffff;dashed=0;verticalLabelPosition=bottom;verticalAlign=top;align=center;html=1;fontSize=12;fontStyle=0;aspect=fixed;shape=mxgraph.aws4.resourceIcon;resIcon=mxgraph.aws4.iot_analytics;" parent="1" vertex="1">
          <mxGeometry x="532.5" y="708.5" width="78" height="78" as="geometry" />
        </mxCell>
        <mxCell id="-QjtrjUzRDEMRZ5MF8oH-23" value="AWS IoT Events" style="outlineConnect=0;fontColor=#232F3E;gradientColor=#60A337;gradientDirection=north;fillColor=#277116;strokeColor=#ffffff;dashed=0;verticalLabelPosition=bottom;verticalAlign=top;align=center;html=1;fontSize=12;fontStyle=0;aspect=fixed;shape=mxgraph.aws4.resourceIcon;resIcon=mxgraph.aws4.iot_events;" parent="1" vertex="1">
          <mxGeometry x="721.5" y="708.5" width="78" height="78" as="geometry" />
        </mxCell>
        <mxCell id="-QjtrjUzRDEMRZ5MF8oH-24" value="Amazon SNS" style="outlineConnect=0;fontColor=#232F3E;gradientColor=#F34482;gradientDirection=north;fillColor=#BC1356;strokeColor=#ffffff;dashed=0;verticalLabelPosition=bottom;verticalAlign=top;align=center;html=1;fontSize=12;fontStyle=0;aspect=fixed;shape=mxgraph.aws4.resourceIcon;resIcon=mxgraph.aws4.sns;" parent="1" vertex="1">
          <mxGeometry x="902.5" y="708.5" width="78" height="78" as="geometry" />
        </mxCell>
        <mxCell id="-QjtrjUzRDEMRZ5MF8oH-25" value="Amazon Kinesis&lt;br&gt;Video Streams&lt;br&gt;" style="outlineConnect=0;fontColor=#232F3E;gradientColor=#945DF2;gradientDirection=north;fillColor=#5A30B5;strokeColor=#ffffff;dashed=0;verticalLabelPosition=bottom;verticalAlign=top;align=center;html=1;fontSize=12;fontStyle=0;aspect=fixed;shape=mxgraph.aws4.resourceIcon;resIcon=mxgraph.aws4.kinesis_video_streams;" parent="1" vertex="1">
          <mxGeometry x="484.5" y="874.5" width="78" height="78" as="geometry" />
        </mxCell>
        <mxCell id="-QjtrjUzRDEMRZ5MF8oH-26" value="Mobile Application" style="outlineConnect=0;fontColor=#232F3E;gradientColor=#F54749;gradientDirection=north;fillColor=#C7131F;strokeColor=#ffffff;dashed=0;verticalLabelPosition=bottom;verticalAlign=top;align=center;html=1;fontSize=12;fontStyle=0;aspect=fixed;shape=mxgraph.aws4.resourceIcon;resIcon=mxgraph.aws4.mobile;" parent="1" vertex="1">
          <mxGeometry x="785.5" y="873.5" width="78" height="78" as="geometry" />
        </mxCell>
        <mxCell id="-QjtrjUzRDEMRZ5MF8oH-27" value="2" style="rounded=1;whiteSpace=wrap;html=1;fillColor=#007CBD;strokeColor=none;fontColor=#FFFFFF;fontStyle=1;fontSize=22;" parent="1" vertex="1">
          <mxGeometry x="483.5" y="164.5" width="40" height="38" as="geometry" />
        </mxCell>
        <mxCell id="-QjtrjUzRDEMRZ5MF8oH-28" value="3" style="rounded=1;whiteSpace=wrap;html=1;fillColor=#007CBD;strokeColor=none;fontColor=#FFFFFF;fontStyle=1;fontSize=22;" parent="1" vertex="1">
          <mxGeometry x="810" y="223" width="40" height="38" as="geometry" />
        </mxCell>
        <mxCell id="-QjtrjUzRDEMRZ5MF8oH-29" value="4" style="rounded=1;whiteSpace=wrap;html=1;fillColor=#007CBD;strokeColor=none;fontColor=#FFFFFF;fontStyle=1;fontSize=22;" parent="1" vertex="1">
          <mxGeometry x="810" y="421" width="40" height="38" as="geometry" />
        </mxCell>
        <mxCell id="-QjtrjUzRDEMRZ5MF8oH-30" value="5" style="rounded=1;whiteSpace=wrap;html=1;fillColor=#007CBD;strokeColor=none;fontColor=#FFFFFF;fontStyle=1;fontSize=22;" parent="1" vertex="1">
          <mxGeometry x="810" y="555.5" width="40" height="38" as="geometry" />
        </mxCell>
        <mxCell id="-QjtrjUzRDEMRZ5MF8oH-31" value="6" style="rounded=1;whiteSpace=wrap;html=1;fillColor=#007CBD;strokeColor=none;fontColor=#FFFFFF;fontStyle=1;fontSize=22;" parent="1" vertex="1">
          <mxGeometry x="136.5" y="608.5" width="40" height="38" as="geometry" />
        </mxCell>
        <mxCell id="-QjtrjUzRDEMRZ5MF8oH-32" value="7" style="rounded=1;whiteSpace=wrap;html=1;fillColor=#007CBD;strokeColor=none;fontColor=#FFFFFF;fontStyle=1;fontSize=22;" parent="1" vertex="1">
          <mxGeometry x="462.5" y="666.5" width="40" height="38" as="geometry" />
        </mxCell>
        <mxCell id="-QjtrjUzRDEMRZ5MF8oH-33" value="8" style="rounded=1;whiteSpace=wrap;html=1;fillColor=#007CBD;strokeColor=none;fontColor=#FFFFFF;fontStyle=1;fontSize=22;" parent="1" vertex="1">
          <mxGeometry x="832.5" y="666.5" width="40" height="38" as="geometry" />
        </mxCell>
        <mxCell id="-QjtrjUzRDEMRZ5MF8oH-34" value="9" style="rounded=1;whiteSpace=wrap;html=1;fillColor=#007CBD;strokeColor=none;fontColor=#FFFFFF;fontStyle=1;fontSize=22;" parent="1" vertex="1">
          <mxGeometry x="352.5" y="854.5" width="40" height="38" as="geometry" />
        </mxCell>
        <mxCell id="-QjtrjUzRDEMRZ5MF8oH-35" value="10" style="rounded=1;whiteSpace=wrap;html=1;fillColor=#007CBD;strokeColor=none;fontColor=#FFFFFF;fontStyle=1;fontSize=22;" parent="1" vertex="1">
          <mxGeometry x="652.5" y="854.5" width="40" height="38" as="geometry" />
        </mxCell>
        <mxCell id="-QjtrjUzRDEMRZ5MF8oH-47" value="SSOLID SELF STORAGE DEV" style="text;html=1;resizable=0;points=[];autosize=1;align=left;verticalAlign=top;spacingTop=-4;fontSize=30;fontStyle=1" parent="1" vertex="1">
          <mxGeometry x="56.5" y="64.5" width="450" height="40" as="geometry" />
        </mxCell>
        <mxCell id="-QjtrjUzRDEMRZ5MF8oH-48" value="HUB INTEGRATION SELF STORAGE" style="text;html=1;resizable=0;points=[];autosize=1;align=left;verticalAlign=top;spacingTop=-4;fontSize=16;" parent="1" vertex="1">
          <mxGeometry x="56.5" y="114.5" width="300" height="30" as="geometry" />
        </mxCell>
        <mxCell id="-QjtrjUzRDEMRZ5MF8oH-49" value="MAIN" style="text;html=1;resizable=0;points=[];autosize=1;align=left;verticalAlign=top;spacingTop=-4;fontSize=16;fontStyle=1" parent="1" vertex="1">
          <mxGeometry x="84.5" y="164.5" width="60" height="30" as="geometry" />
        </mxCell>
        <mxCell id="SCVMTBWpLvtzJIhz15lM-1" value="" style="line;strokeWidth=2;html=1;fontSize=14;" parent="1" vertex="1">
          <mxGeometry x="52.5" y="139.5" width="1060" height="10" as="geometry" />
        </mxCell>
        <mxCell id="SCVMTBWpLvtzJIhz15lM-2" value="&lt;span&gt;ONLINE MARKET SALES&lt;/span&gt;" style="text;html=1;resizable=0;points=[];autosize=1;align=left;verticalAlign=top;spacingTop=-4;fontSize=14;fontStyle=1" parent="1" vertex="1">
          <mxGeometry x="442.5" y="216.5" width="190" height="20" as="geometry" />
        </mxCell>
        <mxCell id="SCVMTBWpLvtzJIhz15lM-3" value="" style="edgeStyle=orthogonalEdgeStyle;html=1;endArrow=open;elbow=vertical;startArrow=none;endFill=0;strokeColor=#545B64;rounded=0;fontSize=14;" parent="1" edge="1">
          <mxGeometry width="100" relative="1" as="geometry">
            <mxPoint x="354.5" y="394.5" as="sourcePoint" />
            <mxPoint x="404.5" y="394.5" as="targetPoint" />
          </mxGeometry>
        </mxCell>
        <mxCell id="SCVMTBWpLvtzJIhz15lM-5" value="" style="shape=curlyBracket;whiteSpace=wrap;html=1;rounded=1;fontSize=14;" parent="1" vertex="1">
          <mxGeometry x="415.5" y="248.5" width="20" height="290" as="geometry" />
        </mxCell>
        <mxCell id="SCVMTBWpLvtzJIhz15lM-17" value="&lt;span&gt;Label&lt;/span&gt;" style="edgeStyle=orthogonalEdgeStyle;html=1;endArrow=open;elbow=vertical;startArrow=none;endFill=0;strokeColor=#545B64;rounded=0;fontSize=14;strokeWidth=2;" parent="1" edge="1">
          <mxGeometry x="-0.037" y="20" width="100" relative="1" as="geometry">
            <mxPoint x="574.5" y="361.5" as="sourcePoint" />
            <mxPoint x="844.5" y="361.5" as="targetPoint" />
            <mxPoint as="offset" />
          </mxGeometry>
        </mxCell>
        <mxCell id="SCVMTBWpLvtzJIhz15lM-18" value="&lt;span&gt;Label&lt;/span&gt;" style="edgeStyle=orthogonalEdgeStyle;html=1;endArrow=none;elbow=vertical;startArrow=open;endFill=0;strokeColor=#545B64;rounded=0;fontSize=14;strokeWidth=2;startFill=0;" parent="1" edge="1">
          <mxGeometry x="-0.037" y="20" width="100" relative="1" as="geometry">
            <mxPoint x="578" y="394.5" as="sourcePoint" />
            <mxPoint x="848" y="394.5" as="targetPoint" />
            <mxPoint as="offset" />
          </mxGeometry>
        </mxCell>
        <mxCell id="SCVMTBWpLvtzJIhz15lM-21" value="SECURITY | ACCESS CONTROL" style="text;html=1;resizable=0;points=[];autosize=1;align=left;verticalAlign=top;spacingTop=-4;fontSize=16;fontStyle=1" parent="1" vertex="1">
          <mxGeometry x="66.5" y="576.5" width="270" height="30" as="geometry" />
        </mxCell>
        <mxCell id="SCVMTBWpLvtzJIhz15lM-22" value="&lt;span&gt;Label&lt;/span&gt;" style="text;html=1;resizable=0;points=[];autosize=1;align=left;verticalAlign=top;spacingTop=-4;fontSize=14;fontStyle=1" parent="1" vertex="1">
          <mxGeometry x="136.5" y="656.5" width="50" height="20" as="geometry" />
        </mxCell>
        <mxCell id="SCVMTBWpLvtzJIhz15lM-23" value="" style="shape=curlyBracket;whiteSpace=wrap;html=1;rounded=1;fontSize=14;direction=north;" parent="1" vertex="1">
          <mxGeometry x="98.5" y="535.5" width="290" height="20" as="geometry" />
        </mxCell>
        <mxCell id="SCVMTBWpLvtzJIhz15lM-24" value="Video Events" style="edgeStyle=orthogonalEdgeStyle;html=1;endArrow=open;elbow=vertical;startArrow=none;endFill=0;strokeColor=#545B64;rounded=0;fontSize=14;strokeWidth=2;" parent="1" edge="1">
          <mxGeometry x="-0.037" y="20" width="100" relative="1" as="geometry">
            <mxPoint x="261.5" y="753.5" as="sourcePoint" />
            <mxPoint x="342.5" y="753.5" as="targetPoint" />
            <mxPoint as="offset" />
          </mxGeometry>
        </mxCell>
        <mxCell id="SCVMTBWpLvtzJIhz15lM-25" value="" style="edgeStyle=orthogonalEdgeStyle;html=1;endArrow=open;elbow=vertical;startArrow=none;endFill=0;strokeColor=#545B64;rounded=0;fontSize=14;strokeWidth=2;" parent="1" edge="1">
          <mxGeometry x="-0.037" y="20" width="100" relative="1" as="geometry">
            <mxPoint x="443" y="750" as="sourcePoint" />
            <mxPoint x="524" y="750" as="targetPoint" />
            <mxPoint as="offset" />
          </mxGeometry>
        </mxCell>
        <mxCell id="SCVMTBWpLvtzJIhz15lM-26" value="" style="edgeStyle=orthogonalEdgeStyle;html=1;endArrow=open;elbow=vertical;startArrow=none;endFill=0;strokeColor=#545B64;rounded=0;fontSize=14;strokeWidth=2;" parent="1" edge="1">
          <mxGeometry x="-0.037" y="20" width="100" relative="1" as="geometry">
            <mxPoint x="622.5" y="750" as="sourcePoint" />
            <mxPoint x="703.5" y="750" as="targetPoint" />
            <mxPoint as="offset" />
          </mxGeometry>
        </mxCell>
        <mxCell id="SCVMTBWpLvtzJIhz15lM-27" value="" style="edgeStyle=orthogonalEdgeStyle;html=1;endArrow=open;elbow=vertical;startArrow=none;endFill=0;strokeColor=#545B64;rounded=0;fontSize=14;strokeWidth=2;" parent="1" edge="1">
          <mxGeometry x="-0.037" y="20" width="100" relative="1" as="geometry">
            <mxPoint x="811.5" y="747.5" as="sourcePoint" />
            <mxPoint x="892.5" y="747.5" as="targetPoint" />
            <mxPoint as="offset" />
          </mxGeometry>
        </mxCell>
        <mxCell id="SCVMTBWpLvtzJIhz15lM-28" value="Video Stream" style="edgeStyle=orthogonalEdgeStyle;html=1;endArrow=open;elbow=vertical;startArrow=none;endFill=0;strokeColor=#545B64;rounded=0;fontSize=14;strokeWidth=2;" parent="1" edge="1">
          <mxGeometry x="0.0038" y="-11" width="100" relative="1" as="geometry">
            <mxPoint x="262" y="913" as="sourcePoint" />
            <mxPoint x="472.5" y="913.5" as="targetPoint" />
            <mxPoint as="offset" />
            <Array as="points">
              <mxPoint x="367.5" y="913.5" />
            </Array>
          </mxGeometry>
        </mxCell>
        <mxCell id="SCVMTBWpLvtzJIhz15lM-29" value="" style="edgeStyle=orthogonalEdgeStyle;html=1;endArrow=open;elbow=vertical;startArrow=none;endFill=0;strokeColor=#545B64;rounded=0;fontSize=14;strokeWidth=2;" parent="1" edge="1">
          <mxGeometry x="0.0038" y="-11" width="100" relative="1" as="geometry">
            <mxPoint x="575.0714285714287" y="913.2142857142858" as="sourcePoint" />
            <mxPoint x="762.5" y="913.5" as="targetPoint" />
            <mxPoint as="offset" />
            <Array as="points">
              <mxPoint x="680.5" y="913.5" />
            </Array>
          </mxGeometry>
        </mxCell>
        <mxCell id="SCVMTBWpLvtzJIhz15lM-30" value="Build" style="outlineConnect=0;gradientColor=none;fontColor=#545B64;strokeColor=none;fillColor=#879196;dashed=0;verticalLabelPosition=bottom;verticalAlign=top;align=center;html=1;fontSize=12;fontStyle=0;aspect=fixed;shape=mxgraph.aws4.illustration_devices;pointerEvents=1" parent="1" vertex="1">
          <mxGeometry x="885.5" y="300.5" width="52" height="38" as="geometry" />
        </mxCell>
        <mxCell id="7OVz4w7n9kzEPWy-4BBC-3" value="" style="rounded=0;whiteSpace=wrap;html=1;fillColor=#EAEDED;fontSize=22;fontColor=#FFFFFF;strokeColor=none;labelBackgroundColor=none;" parent="1" vertex="1">
          <mxGeometry x="1151" y="51" width="539" height="1220" as="geometry" />
        </mxCell>
        <mxCell id="7OVz4w7n9kzEPWy-4BBC-4" value="1" style="rounded=1;whiteSpace=wrap;html=1;fillColor=#007CBD;strokeColor=none;fontColor=#FFFFFF;fontStyle=1;fontSize=22;labelBackgroundColor=none;" parent="1" vertex="1">
          <mxGeometry x="1169" y="63" width="40" height="38" as="geometry" />
        </mxCell>
        <mxCell id="7OVz4w7n9kzEPWy-4BBC-5" value="2" style="rounded=1;whiteSpace=wrap;html=1;fillColor=#007CBD;strokeColor=none;fontColor=#FFFFFF;fontStyle=1;fontSize=22;labelBackgroundColor=none;" parent="1" vertex="1">
          <mxGeometry x="1167.5" y="185" width="40" height="38" as="geometry" />
        </mxCell>
        <mxCell id="7OVz4w7n9kzEPWy-4BBC-6" value="3" style="rounded=1;whiteSpace=wrap;html=1;fillColor=#007CBD;strokeColor=none;fontColor=#FFFFFF;fontStyle=1;fontSize=22;labelBackgroundColor=none;" parent="1" vertex="1">
          <mxGeometry x="1167.5" y="305" width="40" height="38" as="geometry" />
        </mxCell>
        <mxCell id="7OVz4w7n9kzEPWy-4BBC-7" value="4" style="rounded=1;whiteSpace=wrap;html=1;fillColor=#007CBD;strokeColor=none;fontColor=#FFFFFF;fontStyle=1;fontSize=22;labelBackgroundColor=none;" parent="1" vertex="1">
          <mxGeometry x="1167.5" y="419" width="40" height="38" as="geometry" />
        </mxCell>
        <mxCell id="7OVz4w7n9kzEPWy-4BBC-8" value="5" style="rounded=1;whiteSpace=wrap;html=1;fillColor=#007CBD;strokeColor=none;fontColor=#FFFFFF;fontStyle=1;fontSize=22;labelBackgroundColor=none;" parent="1" vertex="1">
          <mxGeometry x="1169" y="536" width="40" height="38" as="geometry" />
        </mxCell>
        <mxCell id="7OVz4w7n9kzEPWy-4BBC-9" value="6" style="rounded=1;whiteSpace=wrap;html=1;fillColor=#007CBD;strokeColor=none;fontColor=#FFFFFF;fontStyle=1;fontSize=22;labelBackgroundColor=none;" parent="1" vertex="1">
          <mxGeometry x="1170" y="651" width="40" height="38" as="geometry" />
        </mxCell>
        <mxCell id="7OVz4w7n9kzEPWy-4BBC-10" value="7" style="rounded=1;whiteSpace=wrap;html=1;fillColor=#007CBD;strokeColor=none;fontColor=#FFFFFF;fontStyle=1;fontSize=22;labelBackgroundColor=none;" parent="1" vertex="1">
          <mxGeometry x="1169.5" y="767" width="40" height="38" as="geometry" />
        </mxCell>
        <mxCell id="7OVz4w7n9kzEPWy-4BBC-11" value="8" style="rounded=1;whiteSpace=wrap;html=1;fillColor=#007CBD;strokeColor=none;fontColor=#FFFFFF;fontStyle=1;fontSize=22;labelBackgroundColor=none;" parent="1" vertex="1">
          <mxGeometry x="1170" y="885" width="40" height="38" as="geometry" />
        </mxCell>
        <mxCell id="7OVz4w7n9kzEPWy-4BBC-12" value="9" style="rounded=1;whiteSpace=wrap;html=1;fillColor=#007CBD;strokeColor=none;fontColor=#FFFFFF;fontStyle=1;fontSize=22;labelBackgroundColor=none;" parent="1" vertex="1">
          <mxGeometry x="1168" y="1005" width="40" height="38" as="geometry" />
        </mxCell>
        <mxCell id="7OVz4w7n9kzEPWy-4BBC-13" value="&lt;span&gt;CRM&lt;br&gt;&lt;/span&gt;ERP&lt;br&gt;SOTARGE ROOM MANAGEMENT&lt;br&gt;&lt;div&gt;BILLING&lt;/div&gt;&lt;div&gt;ACCESS CONTROL AND SECURITY&lt;/div&gt;" style="text;html=1;align=left;verticalAlign=top;spacingTop=-4;fontSize=14;labelBackgroundColor=none;whiteSpace=wrap;" parent="1" vertex="1">
          <mxGeometry x="1220.5" y="62.5" width="449" height="118" as="geometry" />
        </mxCell>
        <mxCell id="7OVz4w7n9kzEPWy-4BBC-14" value="&lt;span&gt;Lorem ipsum dolor sit amet, consectetur adipiscing elit, sed do eiusmod tempor incididunt ut labore et dolore magna aliqua. Ut enim ad minim veniam, quis nostrud exercitation ullamco laboris nisi ut aliquip ex ea commodo consequat. Duis aute irure dolor in reprehenderit in voluptate velit esse cillum dolore eu fugiat nulla pariatur. Excepteur sint occaecat cupidatat non proident, sunt in culpa qui officia deserunt mollit anim id est laborum.&lt;/span&gt;&lt;br&gt;" style="text;html=1;align=left;verticalAlign=top;spacingTop=-4;fontSize=14;labelBackgroundColor=none;whiteSpace=wrap;" parent="1" vertex="1">
          <mxGeometry x="1219.5" y="185.5" width="450" height="115" as="geometry" />
        </mxCell>
        <mxCell id="7OVz4w7n9kzEPWy-4BBC-15" value="&lt;span&gt;Lorem ipsum dolor sit amet, consectetur adipiscing elit, sed do eiusmod tempor incididunt ut labore et dolore magna aliqua. Ut enim ad minim veniam, quis nostrud exercitation ullamco laboris nisi ut aliquip ex ea commodo consequat. Duis aute irure dolor in reprehenderit in voluptate velit esse cillum dolore eu fugiat nulla pariatur. Excepteur sint occaecat cupidatat non proident, sunt in culpa qui officia deserunt mollit anim id est laborum.&lt;/span&gt;&lt;br&gt;" style="text;html=1;align=left;verticalAlign=top;spacingTop=-4;fontSize=14;labelBackgroundColor=none;whiteSpace=wrap;" parent="1" vertex="1">
          <mxGeometry x="1219.5" y="303.5" width="450" height="117" as="geometry" />
        </mxCell>
        <mxCell id="7OVz4w7n9kzEPWy-4BBC-16" value="&lt;span&gt;Lorem ipsum dolor sit amet, consectetur adipiscing elit, sed do eiusmod tempor incididunt ut labore et dolore magna aliqua. Ut enim ad minim veniam, quis nostrud exercitation ullamco laboris nisi ut aliquip ex ea commodo consequat. Duis aute irure dolor in reprehenderit in voluptate velit esse cillum dolore eu fugiat nulla pariatur. Excepteur sint occaecat cupidatat non proident, sunt in culpa qui officia deserunt mollit anim id est laborum.&lt;/span&gt;&lt;br&gt;" style="text;html=1;align=left;verticalAlign=top;spacingTop=-4;fontSize=14;labelBackgroundColor=none;whiteSpace=wrap;" parent="1" vertex="1">
          <mxGeometry x="1219.5" y="419.5" width="450" height="121" as="geometry" />
        </mxCell>
        <mxCell id="7OVz4w7n9kzEPWy-4BBC-17" value="&lt;span&gt;Lorem ipsum dolor sit amet, consectetur adipiscing elit, sed do eiusmod tempor incididunt ut labore et dolore magna aliqua. Ut enim ad minim veniam, quis nostrud exercitation ullamco laboris nisi ut aliquip ex ea commodo consequat. Duis aute irure dolor in reprehenderit in voluptate velit esse cillum dolore eu fugiat nulla pariatur. Excepteur sint occaecat cupidatat non proident, sunt in culpa qui officia deserunt mollit anim id est laborum.&lt;/span&gt;&lt;br&gt;" style="text;html=1;align=left;verticalAlign=top;spacingTop=-4;fontSize=14;labelBackgroundColor=none;whiteSpace=wrap;" parent="1" vertex="1">
          <mxGeometry x="1220.5" y="536.5" width="449" height="114" as="geometry" />
        </mxCell>
        <mxCell id="7OVz4w7n9kzEPWy-4BBC-18" value="&lt;span&gt;Lorem ipsum dolor sit amet, consectetur adipiscing elit, sed do eiusmod tempor incididunt ut labore et dolore magna aliqua. Ut enim ad minim veniam, quis nostrud exercitation ullamco laboris nisi ut aliquip ex ea commodo consequat. Duis aute irure dolor in reprehenderit in voluptate velit esse cillum dolore eu fugiat nulla pariatur. Excepteur sint occaecat cupidatat non proident, sunt in culpa qui officia deserunt mollit anim id est laborum.&lt;/span&gt;&lt;br&gt;" style="text;html=1;align=left;verticalAlign=top;spacingTop=-4;fontSize=14;labelBackgroundColor=none;whiteSpace=wrap;" parent="1" vertex="1">
          <mxGeometry x="1220.5" y="652.5" width="450" height="118" as="geometry" />
        </mxCell>
        <mxCell id="7OVz4w7n9kzEPWy-4BBC-19" value="&lt;span&gt;Lorem ipsum dolor sit amet, consectetur adipiscing elit, sed do eiusmod tempor incididunt ut labore et dolore magna aliqua. Ut enim ad minim veniam, quis nostrud exercitation ullamco laboris nisi ut aliquip ex ea commodo consequat. Duis aute irure dolor in reprehenderit in voluptate velit esse cillum dolore eu fugiat nulla pariatur. Excepteur sint occaecat cupidatat non proident, sunt in culpa qui officia deserunt mollit anim id est laborum.&lt;/span&gt;&lt;br&gt;" style="text;html=1;align=left;verticalAlign=top;spacingTop=-4;fontSize=14;labelBackgroundColor=none;whiteSpace=wrap;" parent="1" vertex="1">
          <mxGeometry x="1220.5" y="767.5" width="449" height="113" as="geometry" />
        </mxCell>
        <mxCell id="7OVz4w7n9kzEPWy-4BBC-20" value="&lt;span&gt;Lorem ipsum dolor sit amet, consectetur adipiscing elit, sed do eiusmod tempor incididunt ut labore et dolore magna aliqua. Ut enim ad minim veniam, quis nostrud exercitation ullamco laboris nisi ut aliquip ex ea commodo consequat. Duis aute irure dolor in reprehenderit in voluptate velit esse cillum dolore eu fugiat nulla pariatur. Excepteur sint occaecat cupidatat non proident, sunt in culpa qui officia deserunt mollit anim id est laborum.&lt;/span&gt;&lt;br&gt;" style="text;html=1;align=left;verticalAlign=top;spacingTop=-4;fontSize=14;labelBackgroundColor=none;whiteSpace=wrap;" parent="1" vertex="1">
          <mxGeometry x="1220.5" y="886.5" width="449" height="124" as="geometry" />
        </mxCell>
        <mxCell id="7OVz4w7n9kzEPWy-4BBC-21" value="&lt;span&gt;Lorem ipsum dolor sit amet, consectetur adipiscing elit, sed do eiusmod tempor incididunt ut labore et dolore magna aliqua. Ut enim ad minim veniam, quis nostrud exercitation ullamco laboris nisi ut aliquip ex ea commodo consequat. Duis aute irure dolor in reprehenderit in voluptate velit esse cillum dolore eu fugiat nulla pariatur. Excepteur sint occaecat cupidatat non proident, sunt in culpa qui officia deserunt mollit anim id est laborum.&lt;/span&gt;&lt;br&gt;" style="text;html=1;align=left;verticalAlign=top;spacingTop=-4;fontSize=14;labelBackgroundColor=none;whiteSpace=wrap;" parent="1" vertex="1">
          <mxGeometry x="1220.5" y="1005.5" width="449" height="115" as="geometry" />
        </mxCell>
        <mxCell id="7OVz4w7n9kzEPWy-4BBC-22" value="10" style="rounded=1;whiteSpace=wrap;html=1;fillColor=#007CBD;strokeColor=none;fontColor=#FFFFFF;fontStyle=1;fontSize=22;labelBackgroundColor=none;" parent="1" vertex="1">
          <mxGeometry x="1169" y="1130.5" width="40" height="38" as="geometry" />
        </mxCell>
        <mxCell id="7OVz4w7n9kzEPWy-4BBC-23" value="&lt;span&gt;Lorem ipsum dolor sit amet, consectetur adipiscing elit, sed do eiusmod tempor incididunt ut labore et dolore magna aliqua. Ut enim ad minim veniam, quis nostrud exercitation ullamco laboris nisi ut aliquip ex ea commodo consequat. Duis aute irure dolor in reprehenderit in voluptate velit esse cillum dolore eu fugiat nulla pariatur. Excepteur sint occaecat cupidatat non proident, sunt in culpa qui officia deserunt mollit anim id est laborum.&lt;/span&gt;&lt;br&gt;" style="text;html=1;align=left;verticalAlign=top;spacingTop=-4;fontSize=14;labelBackgroundColor=none;whiteSpace=wrap;" parent="1" vertex="1">
          <mxGeometry x="1221.5" y="1131" width="449" height="115" as="geometry" />
        </mxCell>
        <mxCell id="n5wzkKO4SlnLm2nGRkyD-1" value="" style="sketch=0;points=[[0,0,0],[0.25,0,0],[0.5,0,0],[0.75,0,0],[1,0,0],[0,1,0],[0.25,1,0],[0.5,1,0],[0.75,1,0],[1,1,0],[0,0.25,0],[0,0.5,0],[0,0.75,0],[1,0.25,0],[1,0.5,0],[1,0.75,0]];outlineConnect=0;fontColor=#232F3E;fillColor=#ED7100;strokeColor=#ffffff;dashed=0;verticalLabelPosition=bottom;verticalAlign=top;align=center;html=1;fontSize=12;fontStyle=0;aspect=fixed;shape=mxgraph.aws4.resourceIcon;resIcon=mxgraph.aws4.compute;" vertex="1" parent="1">
          <mxGeometry x="204.5" y="352.5" width="78" height="78" as="geometry" />
        </mxCell>
        <mxCell id="n5wzkKO4SlnLm2nGRkyD-4" value="Atenea" style="text;html=1;strokeColor=none;fillColor=none;align=center;verticalAlign=middle;whiteSpace=wrap;rounded=0;" vertex="1" parent="1">
          <mxGeometry x="213.5" y="303.5" width="60" height="30" as="geometry" />
        </mxCell>
        <mxCell id="n5wzkKO4SlnLm2nGRkyD-7" value="" style="sketch=0;points=[[0,0,0],[0.25,0,0],[0.5,0,0],[0.75,0,0],[1,0,0],[0,1,0],[0.25,1,0],[0.5,1,0],[0.75,1,0],[1,1,0],[0,0.25,0],[0,0.5,0],[0,0.75,0],[1,0.25,0],[1,0.5,0],[1,0.75,0]];outlineConnect=0;fontColor=#232F3E;fillColor=#E7157B;strokeColor=#ffffff;dashed=0;verticalLabelPosition=bottom;verticalAlign=top;align=center;html=1;fontSize=12;fontStyle=0;aspect=fixed;shape=mxgraph.aws4.resourceIcon;resIcon=mxgraph.aws4.application_integration;" vertex="1" parent="1">
          <mxGeometry x="463" y="343" width="78" height="78" as="geometry" />
        </mxCell>
        <mxCell id="n5wzkKO4SlnLm2nGRkyD-8" value="&lt;h1&gt;Connector&lt;/h1&gt;&lt;div&gt;&lt;div&gt;Check the availability of storage rooms&lt;/div&gt;&lt;div&gt;Online contract signing&lt;/div&gt;&lt;/div&gt;" style="text;html=1;strokeColor=none;fillColor=none;spacing=5;spacingTop=-20;whiteSpace=wrap;overflow=hidden;rounded=0;" vertex="1" parent="1">
          <mxGeometry x="435.5" y="248.5" width="214.5" height="120" as="geometry" />
        </mxCell>
        <mxCell id="n5wzkKO4SlnLm2nGRkyD-9" value="" style="shape=image;verticalLabelPosition=bottom;labelBackgroundColor=default;verticalAlign=top;aspect=fixed;imageAspect=0;image=data:image/png,iVBORw0KGgoAAAANSUhEUgAAAOEAAADhCAMAAAAJbSJIAAABaFBMVEX///8aDTI8LYY+MIcXCTBDMokAACHy8vMbAzoXCDBVPpJYQZRjSprAvsMTAC1RPJAAACQMACpfRphKNo0UAC5wVKHz8vvu6/QAABaHfJ6oo7NsUJ/5+Px3W6bc2uMdDjYAACbt6f+AccgtIUSGf5MKACg1JYBmY3DSztoAAB20sbkAAAC2rMuFgoylm7lRRWhXT2loXqPh2/8mD3w7MFCWitQ/N0/i2/W1r8AVADIAABPEv86YkKmCeJOkmM1pX3s2LEolGT2LdL9bUW5RTV2agMiZjrx5dYIjC3lgVnWhmq/e3uCRjJs3KlDZ0OpuY4NiXHB4cIpIQ1XJv9ivoe5tXbo8Ko7c0v9MPJwyGnyjlem9tO6llNh3a7pjTKy5sNdRRZKvptFMPWeHfrd3aI2ViatTRGzPz9Fxan8wHU9sYIRAL1rJwfCEd5ymjdWjj8egnqSEa698cqyHZrtmV5knFEccAEAsJjwFCLciAAAZAElEQVR4nO2dj1fbRrbHbVDsCMLgAWETI2yzssAmgL2tamwEwV7YejEG7NCmTZO227RsnLTppm9fX//9J9szo7mjkSwTetrs0bdNzgmMR/PR/Lp3flzHYpEiRYoUKVKkSJEiRYoUKVKkSJEiRYoUKVKkSJE+YKX3P5pa6T+60GGlf/TZ50//8Y+Pw+jZ+O+RPv746TdfffGnx9Qzn335j2ebM8GadXWP18zmsy8/2df/aIgA6ZmvPn42gS4A0NHyvc2nf7n80zJmnofh4wFFwuWhZp6+2P+jUeTKfR2GL6gKl4k2v7n8o2Ek0i/nJ3W/yW2U6t6zb/90LVX/9p/vC7jM69njP9uoGhYwLOHy08d/rlq8vmtAR9/dXfH07CTV7ctMUA65v9494PLS9Z0RJl+3jGBZ1kmvvZs998lg48X0gLOTAJeXv964M8L7SA2UomoI44ZxurUjzeDbe+EA/atQwre4uPjpKPdSEage0D9zXZC0Qxte8r4SDyMV4eZp3Zvvxte/Qxt1AJfXfhrl38N5Tg2/luSo2+BTJrbdOgxHOITErZ6n7VyHm+mnAhwSLi7fjPNvIq4I5lnSD3DB4BOm+mzsmIJwyGgJI8DGXyRVuLn5bHMox2nYDCEn/cw9EXBxef2L0ROONb4Eq34jUOaowCVT8qwKpyOMx3ELttTSx16+e59/Mq3+ssjV5eJYy3ujJ6SbPKKCfCpxmweMp7puh52SMI4veMT0Y08jXXxxm1FQf74iAC4u/32cUYdvffHEW+nncyeYL2Sl5P5qWsK4ecJ9OvO52Ei/vq3dnP4EAs4trpGsKnzh46uywUbvlLkkSr7L/W5qwnj5yDUAckIVbn59e98n/eIeRzg3N7dMpqfLFP94/FLy2dIFX9HoOPdehErebac27Iab//z21oDO6/rlHleFDuF3pDNdJfjnH3gHm+QNX4VqE4wV0xNyI7H+HNbh5vfvZTFfA8C5ZdqjN/IqX0OGx/OwQTvWBiDBLQiVhk0+nP4KEi4/fx/A2P7XXBudm1/8Ox2zsnwVxdGh8LnkmckDNkvwt5Cw0dDIf43RnwZKJbD4DhKH5CWl4Wy4ufbFexFuvLjHAc4v/o126iQYbFQDIsAXoOSLAj8gVI8WtgVlD08aoBEMB+OcnPCvARNF8tKuDx2Vkq9V4sw99xigQzjHCGN2ii+lNoA5A2tGawqeECBUVIl1nc7VQSsYNtNX0xLa3faZZbRahnXW7vrZz4SQAPKEepEfbNTftvmPgd/FsWg8TyZ0dD4AplO8vDAdYbZtIRNrqqIoCJvI2upMIpyHhLHcazDYVLl6uizw9Ys8kwkk1OSEseQWqMVEVp+C0B40MbBL1EJry5YkHBPOyQhj2wd8I+Kn9JegDz3yGASh6jAWqzf5d5giQ00owqyl8Z8dM5pW15tyRMgAIWEO9BRUY29oB4yzqR88uYarw1jylK+FAjFrQhCmuwi2cCIt3/f0xiGhCwgJYwtgSMdF8mm9Bc1WbxcPWYexLUD4Nixh+jDhqUDyLNODmH68vOgCCoSZh2CwMciAcgQAVyXlD0vY5gsamlDvrMr5hg9L7HoJ53wJBduzMLY9Lw2+XPhHSclDtlJImDpKhiPkm5aiIUca9wMk9EVCOC8njGXBaFd4N/xZFbZRmWNzq1aa6IQbS3PuOKegVu3UUc1A7F0BN44RzvsR5s48PuAOqMJUX2ZNhKxDvcfnXiYz7gRC/ZC1UZTfOhw1q1ynZ7ChJ7ELigQJl+YFwtg24Cl3k8lTMMAa0nWqkHV4bYFOEM6myTGfAF+4DTLtTB/kx2prwUM470+Y6fOFUPJ2t8WPr4WO1FYKV4d6v8G/rHB2qb5HpypsAVPKZq8r0eUrcUjoAnoJY3YNLLwNwD/xiXypMVQd6tmmrBtOIEz+SD6kNARb0aaVi0BPdAg5QAlhrJgHkyKo0oaPuRumDjPZGvBeLmixgglztAoTokMXY8sqmG+mHOGSnDD3RHBzXKXaPk6L4D15CZOl7bYB8k2xphVMuJegb8S7s0OfmuD7jku45EMYyxo+BoRmLXgSywiV411R7RPDBLkWTtg6TyCh/oYMdIkbb/O5IatL5hVHLxAuSQjTVakNCFdIgwjjuCDKxPCtYctmeQUSsm6YkvgR+8RVYIMWIFzyJRSMGLdUJyVvWinhRJkXXIcOJvyV5CzbTtHJTIksCeFSAGGsL6tEJS/3OG9BmOBqcBIhyVn5VTaKE+tNfe1L+EBOmGxIKjE18N/EnYoQl6/AWBKO8L6MkPRD9cJLSAB9CGN7ZU+51AvJvt/UhApKPPqXYNkGE16Ql00tIPDJR+PfoZcewqUJhLH7nko02/6AU9Rh5cazEhs8lv6LzDHlHe8wRz1zfMZV8IhwaSLh5YFQMlQL2iwJSagYh+cxr1MeSEhnBFzxzsVsnH0IZotFDtCXMHZVgGUTV0hvRRhXUuWDN+JaZ/CMb9MOU/ZMxue0GhJ1YcZ3Af0Jkw1QZq0aeMBompHGLL+8hu5OsF1Ks0Y/iou0tArVFt9HnTrkAP0J9TfAxsr3gwCnnC0wHpyHnS1iyT5tTYkrgJjp0xIW+vwvGOGDsfwIS3A01Wo5ebrbEDqNtWqHnPGHW0I079UfuELk+nQpQ9HAKJ9+PBeGMP1SML8bg6AtL4FQRaLEF5CqhLTanLyv2N5m4uV2adRb9Fz9hOVpgq1MRvggmHDPM5Y2A6ZDkdCqCLpo4QRY7YmnqswEhISzM+I6je1u/CHz5PDd9va77pm7z8OWBCHhg2DCjHc+RL2Ac2mC93RTErWw3a0UAGNhQOewSYTJLrdBjVO40XD+cp9XaMOCQcK1B3+XEh6BjZhxsVv+ZmkYH1/PdSx+xcf1pgHhrJfQGVPAoABbfOpUMOfGhBTQh7CUlwwcuOrrWoRbp9HtKo8o3T+clRHGSmfeN05r8IlYqhHhgwmEJ0iWmVb0nRNDribaYK2Nenwc4aycMFaq+iCalsfUGhK6gHLCTlw69qMLPxc/9IrwgF9so9NYCMJY7jghK1Oq4p3EOMI1H8INPx/f7PsNNmFX9UElUpfPJZz1JYwlD5EplgcdPJRMYQ4hByglLKo+07dibnszlBD612EMbK+tCoSzAYSx2H7lIMWN8Kr56LU0YfrxPE+45iUs1aS9cPTSLB/LJjRhj28e5PRmSEKncb11V7MU9MbHGmOEa36EbXA8SgETY1m+5B26lcYGfHaJQ50nnJ1E6Ii4vPGCX2tyCdf8COFaYuEIdEpF5ml7CAPqEBAWHiY5wtkwhMxf8h30KOGaH2FmwDuGyHgFR3jzjXSwCV2HoJWabzjC2TCESUpY9j+rDQhXVjyEHeAXYqdVwlX+srR53G6kMX9wCWdDEZ7TjTbZmgYgXPMjLIEzpOZwYTpX4987smSVGLYOSyCv9yHcCyBc4gBFwmQXmI7jw8rQACh7Nkg8hP51CNtD6oaNNLPhCJnXmtjzta84whUvIex0eLxCmj4Bg01DYp6GrMMFOBGRDZUpCNmiTcq7ZMcTuoArK4Aw0+dnCmQRw7EEHFjzbBKhXx2+qvJGG1tbcgj5WwZBhHVKWHjo68s5hDwgINTroBE16Hma2BGYIle9vnAYwkz2iWANlplNw1+jCCJkR5foSZXJhKCVnsOj6q63lAEnidBrTy8XPOC99AbUfqle7BnCwoh64SW8F0xINxPhfpqccMVbh3qHryqlxQ0pe+DITsKzdiqsYtSqomrNPBaXDQrueZqwhDeUEJ9NIlyREJ63wMmgU25RU/+RHyLUvGgIiStRWBBCkq2eA3r68qtNDvDe7IOffAnf0jrAFV/CjZ8fAMKf2QtLgmFGOKp+/ogvG6oGE4YS207RP3sG7jLNfOpLSDeE46jiezvrErTR9RX3bkoJuNEChP4WtmBhzeY2hAfM8Np+Bi5rzfhft/gXI/zRjzD9fIkHXF/7js0r8DqFITwlCXxs9AROR7cgNM+YJ5b7GN5G25Tf2XF0vaqNlfCdD+1lrgrX19dXdmhvg1uG6Ej4oH4NBpsG/P30hFre9Q4yizPwvt3Mp3422c7Z8VBnh36Al9+ANuqILuQkAaBmeD6aOYHHa8Gdk6kJtTjnaaY/2RRuFD79/laxLfTMt0sC4MrPtDG+AasgZcmcbUOvA6zyT0uIWqASrp+JVyY3v3xxmZtW+z/9Z06swRV6KegSjJW4InlB8PYhHGunvX9odEAr2/h8xhMdYfPZ0y8lmhvrm/n5b5Zcjd2lufkHa7ATrq//Qtqa/hIc7kLS/d5X8GQhv8o/FSHC1W3YBtOPn3kvvXquvnJ3fdjhQ7DLtLa25qnCf5NXuQcMqoQ4zJDX0NF465M/fDIFIUpYXY93cvlgZsK1Xh6PHcyDgNSjWOOqcJ1cg8uAO6RIcoJspPMeWJXnVvlDEqo4Vai8s72DiP7d09lAQHBZKxiQb6OsCot5vhxl3300eLw2VWR2XbKQSE1QIpHAF2+62/LNj41fNsMCzgUCgk64/gvpbjaowoC73Emw0qgabErTH07SzWF2e+FVzjfrn5ZmbgcYVIXr5J5fGuwmKKbsqg2RXQFbK2wLMJaZpHQ6eILTH385O10nDAH4gjwzq5UTrh4d+l98i+nFFJe27LdAfBvp389MVYVLsmEUttG/0fGkvgcUeCQhswPS7gTGK5lOyf95emtA1gm5cXRlnbUwHSq4HFMlnlLfb0oBl8NPFPxM+J+AtviH6cXTmZATRVAnHLXQBz//0TByfbQ446nFW3XClfe7S/x76sU/lyUBPMLNhC7iizscH+5cGy/+d37ZG8EjbCdcW1n/5fGfNBwdU/L597+sLM15KpK4FXPcGe4l2ErX//O37//9051FTvo9lf7o+ePHn06r77776cMJ8Bkp0u+ijE0UFCzsg9bCBTlq2Qq0bD9gLayS07IH/7WEdFdgNSL8UBURfviKCD98RYQfviLCD18R4YcvD+HGxsaEvYrR4bBJvpa+ESLVKKeJKxhhnqf7ZwUJM9li/6rf7tb9Hpurd3f7V8dX/WI3W/J7atru7Lb7/eN+v73bsX2WmDJOTsVRVrvdrO2Led0Zpho+r+67Gr5f7xadx131nazqnlIBQrtnmENpVk+6G5kr9qwGNsdpjGpfsmvqFL0zqLTQOJGJWtZxW+Jc57o9Kz/OqYAbRmXQleaVbVdIKrPhF63vuli9aLCsLqqDDuxvPOFOk96MUAuG94603nnCH+RTMbKOvJ233muZ3MlWBWHc7AkHafRDJyeYKF/reV5EacvgslJNScDtWHJgIf50oYpx60mfv5vgEp5ft7hzAaghIurHLTHWJ8p7bjB1De9xPxW3qlk+kTcnBxI1hWt29ZqQlYKbImKy1vDcpFFQvsbFxWKE5Vcwrefm4pnkpKIiRqB6p0lvXylafOC+ixPPkc7xE5HBH7aoX3hvAZkCYjIuj8qjqb+xs0WMULWEDFEN5PZQftMOHqisG353k9RVFoPuxvdaInrkntmyK7LC4xogfO0bdgg9oi2VEcY97xW0U3g4iVOZi7EDT5wDmcfsffnlFI+n3nJZSd+DAo7m7fhG9VPcAO4Lvi80jvlIob/6Xhwru+10W3aLdSR2vj4W+6HgkyaOLbf3ZDV5Voi/gO/bYuIF9wYgIEQII/dDquH2xGsQQlQFx1fe0sx093LzcAjFmMUR5Du1+2F1nIj+G7Xcd5U7NrmshuWi/2y4URQu2UCrDL+lgjvTbJ5IRpphVrXe1qnlHvXDbmAULqgfahhWM2+yVMp9mlvuihRLwUa1t7XVO621RkVTVDfW5Tm9J4k0a5SoauXNUaI8N11ss8NMWr66NRj0avRlIfeO9CEd1Zy55nSU1cV45sAWN124hEq8bScdU2PADhjhLVp2nb14BZ06dkq9u+WG+2FhxEv0VIvWzg7P4OgZu9OuNsy45gbQiu0QQlQr1oeJko6Z1K4hpCD3KNMwMCh9n1Z3+FndPibn2bmWdUUItdOundGHWWXbWxcmUg1+anUJERlYMn3am1CFdp5r1is0chpHL7K6LtDxwb4Y/8g8dvOPlbrHCYM77HMzLpbS4s+82MVqqsfNO+zLANAF/WjuWBVbFrkVhGr8dwXU21ahyI/v7mzBwp2XaNhM1aDzNGsPXKyHLnvNNHLogjEmFM65bnT5mZUQckMPeRH8dM8u3idc65HeksU9WgRyydI8Arvjer0L5mhGWHjIfrZLDsy5BxnpV2nwMQLP6YysNEht2KR9e+5W8+aYtA7FRLRUILpze/xJjb0bWofVgPNgvNXmTrYsNLJGo1bSK6l8rMM0u3WUIEAlajTgo6y9n5G7HnskDbKKdXtf7lPoWVIq0BpIsZQWbVlntFRVx6XY8HM9ZB7wJR0xTGqH0AuIBa5B6OzC1gGZzNlIEzfz1tmg7bhF9Uvxwdd0LNVwq3I82O12srZ4NDB9SF5emTd7N0gzZe+dhW/D2sXJ8ehxtvc4h4xwg3bEgkiY4J2EErUoHpFTFBkWdmc4iTmukzOvnGy1O+DsctL1FoaJMM4blepWMcsXjR3dRqCs5CorpqXa4+Zux13DWsuq9DzOrYwwcxqK8JVIGHsnGm2jOb1VATHKDcE2V4aJNOOUGwApodLY6ex1yP+dnRrp5m1SiIwYQGeUVd46BefRpYRVfDtCW7TeaVXxMcrlxqTqzNqsrt3j9+AbxMjPzD41caXG+dBZO+ZaxJ0SujOIIK3FIf6f3Jp03DpaBJdwGI6fihkix/R5GR8jXkEVidV2J4TpQdnHYOZi/yVXfXwe/DopEkqTnbHn7TzyMfVTbxni3RLGNvpI84SXGj2Si9+YuUCaNIoH9cRCE8auE5o3cv+oTKzJ3zGhM2tVm61hfHIBAQRw1G9qzbjmYAqJFJwMQ8jHK93o/2bkh1kpMKvCD3Q6vtOxlDx0b3D6pNZs5YduD3vuOI460+Wh43lYRkvjfCxnZj0XCMVLn0MlYERW/fqo5zzO4eQ8sbjyK22m082HKSnhgfdUYaZUPyw6/swT9vUFhV2PjZO77hy2t7ZOa3maqLwHCbUtmYqeFT7dyao4cLKyGGOZvgapTVP1s2l4i9O1aVZ9z4UmS50qSWT6BlJNXhdZtxi7KZkimVgTfhn76Nz1/RJ7HkKJXYqC7NIka0oF/u6x+NAcmafxccDGiE0CrOM340w6CU+hfCQ+Tz+kkTVvRMKU61sUmW9BCa9kvgV9W8p97gF1j51PrEeOUO+IV3AyZHUAk7gI2yzE6QTATEd8b7nX45fFVrWC/EPF6x9i95bsLvMPORfHrl2IN8C8hNlyNQsLljnGgGiBdswUyKzkcUWuEoMF2PpfEdeS1Rjn4x+NPy/z8d01H0xszFyXTdtc7ed6GBVOwB6ETZq8yZaES/cVnO+947ZQkh3yyAL5qhjmpYAvibBPxOt5nbJiGkd1PvRkm5TL2w+Hy0X1nDMGDtgFf8wuK+rupX9c2c1ms91jd11+lTXMzCgKCi5UHAO/lEtmcnZ216IRhem3PehDa1Ix8ydFx206HyVq02VBWqwMCx+IK8Tr0O3dJha+2mQU+kM1jd5u9jqXTDqF7/bo4kqZlopfa8NWtVdtulMYt9Z25d7wQ46/08Ku4eWutcW2SUmR2Riuo/V6FQPT9s3mw3aCPM1xIqujtbYWW7hjxwfrrBTIKX+3093dqmma8yEecYNY3grGQw9smFXD9JQKrJeq/JzpdEN3fWWft3EVYD+4geVfcV8yIKyFujZNFnP+4TiRbGHSXS9VMWq1HMtAG3+EC/3cd1/7eH2W2w+R2DRe4VOuD4uRUd28MV33ccPLSkTt0kupg0XEReEHa97cK1VRm6bxCTI41gHrv/x6qVB0EGZ532+34YBGRkofmv5PVMniSroaAKiY7iKZz77F8I32xyPitaXJUwxVeOP1LZSWUD4M95480V/HSrBwJbmXPp7T6ImkcV3nPVEGXT3i53e7Ik+JGiR6y1HB/2Wp2B1eGWHChgVUW8Lt/rcpr5uiYC6WR+ahKfdknMo5oW9r30I+ey4qCXXHEC1Jo1ewwYq1YyAfRq3A2R3cHvAe/10WyBMKXL9piZ4fUs/AzG1XW5q3/I7zfsxN1Xu/eYPeOHxa/FCwwOyqJhAoOP6Es/LTV01Nsm2raQYf+W6hTL5l3Bmoj+j3dSjIbEqCg9nDjRa23TNcWTkUrel6r5bHvG/oZJV/IuR186SpgUQqQoZkWTfdtxqYJXNyaok5bQyeGAiM/ypuNAfgtS+0rLGGiyTZU2M06OatLWn0gsxhrzb06MZpqkXZDe9Scatq5Uki3DBqW0XvWu11sVc18ogkyhvVLfn5lsvBqUWSaa1KT/LWk51Br8ayQi2r2hZeVaZONAqHl+k4/tpWu+tr0uuOHzZK4lgt/vGC6t1RIidZseMT2F8vZUkiJ6usv9uRrHfb7cCcYunrzjhNcKncLJMT76mGSOIgJMPlFOZWbJhUIbOKFClSpEiRIkWKFClSpEiRIkWKFClSpEiRIkWKFClSpEiRIkWKFEmu/weXqH3+C73qvwAAAABJRU5ErkJggg==;" vertex="1" parent="1">
          <mxGeometry x="876.5" y="223" width="70" height="70" as="geometry" />
        </mxCell>
        <mxCell id="n5wzkKO4SlnLm2nGRkyD-10" value="&lt;h1&gt;Boxbosses&lt;/h1&gt;&lt;div&gt;Marketplace for storge rooms&lt;/div&gt;&lt;div&gt;Global rent storage room&amp;nbsp;&lt;/div&gt;" style="text;html=1;strokeColor=none;fillColor=none;spacing=5;spacingTop=-20;whiteSpace=wrap;overflow=hidden;rounded=0;" vertex="1" parent="1">
          <mxGeometry x="960" y="227.5" width="214.5" height="120" as="geometry" />
        </mxCell>
        <mxCell id="n5wzkKO4SlnLm2nGRkyD-11" value="" style="shape=image;verticalLabelPosition=bottom;labelBackgroundColor=default;verticalAlign=top;aspect=fixed;imageAspect=0;image=data:image/png,iVBORw0KGgoAAAANSUhEUgAAAOEAAADhCAMAAAAJbSJIAAAAkFBMVEX///8yNzwuMzglKzEXHyYaISgRGiIsMTcgJy0THCMoLjQjKS8QGSH6+voVHSUqMDXe399LT1Pp6erv7/BhZGfNzs9maWyvsLLQ0dK8vb51d3ra2tt8foGRk5XGx8g/REhYW1+Zm522t7ijpKaGiYtucXNFSU2Nj5E3PEGpqqxdYGNQU1cGExyBg4UAAAAAAA4PtXQWAAAPYklEQVR4nO1daXuqvBatQBABQRHnWds6nvf8/393CQmZ2EHbgtpzsz70qTaFDGuPmd7eDAwMDAwMDAwMDAwMDAwMDAwMDAwMDAwMDAwMDAwMDAz+OXST3nA13Y1P4910Newl3WdXqEYkq/1i4zuOg7wMAf6Bsk/+ZrFfJc+u3E/RnexHtouCuN0qox0HyLVH+8mvHc7eKUXIjoG2iYhthNJT79mV/Tp627UbsJGzfNtDyHHDyLO9KHQdhDzbt9hoBu56+6sa2R33Ozatv5U1yenPtuPhPBnQvw+S+XC8nfWdrMGsWKc//i107S1cz6LVRuiynOrVSTJdXjIm09Keu/gNAzlMXZ9UOAjXy+HtYekOl+swII303XT4gDr+BMN+RIQvI93pflOQnDJaE5GM+q/cxskmyseijeLtVy1dso1R3jlWtJk0UrufY/DhWoRq59W3HrA6u7ltsdyPwe3Sj8eWVM//ibrIlFQuxLG7rbFm9WC+9mj7fuaIJbSN3npeU81qwnuICWqFH5r2JavTcpb2j23b81vHS5rZR51PmnzQZ703V90vo7cO8n7/hFREMn3vBx0U2H67cGKsNvZxOvblANrKyWfOh2D9MtbxdMVVj9Gp9Jfu6r3letw9U2D5Xnh8X5Vt5glhmbau5Sc+BTMH19ZJS/pvNfOQf8PxzlqJvFlJ9w5S8tDZY5pQicEam2qrs1O+Tw4I3YorCvgIHVS67jp45O310+3GPHcqg75SweHIte9sHoEdqv5a0sfCbdlP1qmrK65eR1F7q74DhbzViKO+Qtb3Dv7++j33oSaMcQMtV2bo8BLpVEs1LKcvK+Nd7iRdx49skox9mPNIUuqDkfv18WNt7KQS3Xu5DIT7xzaLY4tZ5Mu6YOve1J6VaMv+2mCNH9d5kg+3xw20L+JXPeK7/QiKv3bBGqvzlFEcY4raZ/Gr7fV7AijDukpDdsZNDJ8gi7kWtVPhm+7m5wNI4F1E5qe4iY/XqPO8geIITrzvaxgVMRKVaj6K1wfbxQF+qS/K4CmsrX0Ykv68YHVjP9a7WWcCZ62FLw6dWhvY8v8uql7XOGY2toNCp36gOptnodb7eCqY2QG2i/YD3fATdvxdoQZpUGcD7XVJrfTc7HvnYcFUD2sZMZhIv+Zl3wD6A7xzh6Xg+qiQGEtFIDjb53obuARf+h48ThTzd/X551mtFPU/NK/tK/3aHObYLHS4g/xeq5JpBbp5gATzNHyEVcQcdbgQnuo1E4HeA905j+HpNnPNYu6sTeo19K1rxVROGmcOXeNhxgCrbcQs4aAuV5TCOle9G8uD27Rr84H7kdulTX2+aA67cohOmD86TVQTJtkQWp/s41YcQqsdx7YdBEIEFXuB7fttCwqqLKtUPOs8NWUn4zMr7DY7M7XJXhGyV0z+c3JEnRD5x/5mtDhsx2NuHtFid9oeZunms2U7odtxaHE3RHFefJkVv4hJAW9a+Xos9damyQYOI8lgJb0cSTKQ9ENKqWtLerE7KIoP5OIX6+4xfPvIuiNqcgoVW1335uTSilrI8L6VBzuB6tVymPWpK3sbdSMfwsXtYkUL73uq2ML2LT2yaHYQz+17hvBt1L6PchQXUR87NwrjQWxXmZQfAYcwN4ZwkEymPNLwlqt55RK9QTLcbaT0I9KMD3sKHkS3qRgDP7yjf/jyaCO8PE8YEttD2RfHT6j44hioxVt6c8fo0OvcJSnfQhcTJNX/feUAVo9QD0qU7WCPvQNLwZg9Amtqt5nVU+NMI6CqpJ42TGyPgNJd2KP1ofg3674j+y3rGa+Z9Ck2FXFVgT/ahL4DOZMjeHrxCg7i5D8moHFTBgMLADdXkO8x1EaKYJ/vYK8dlsR5yHiwtSvVwfeRP7jo38SFimhpal2A0l2N3LqQOu05zEwlnduewbeQRb6cHMsr5P/qaRpC1NPQFIxy5459KH7PxKWJSBgbw4CFTR6oEPQ0Bft8qgkuoSh3jlqo+P0UNGIS8WPZSGRNCaBCFXOHQGmNNs3csvKITxDX40kodnZtyMwQp8bMh+Ocd702hVg90sTPcdm6ZDbCZznvTGCqDPP30M0IaLNMpqexcROt0QdZraMpEOVixesVdn6ZqTRUt9HPWMJ9xlzeQsjG6ZMaHlC6q5Pbdkn37m3B3cDvR3WH+nux2w6YjKAk6GkKsvpD1yOR6jthNe0X+eCcUHVPfGeanRu1Y754EPIr9DQFZKuCpqVUxTlPBBSfLhb8vJ/AFsRwQHRgBClsvTaFWN296kq7SnI7dyaY0ceCaNfYujcSeDKe0Z4HbZyepiCrtTRVNFOeppVrcEco/hVgh55ZqUPRCqCgnqYgq6daH0FOgZDUDxPEJLoR5nwd+0BIMBRpYNDG6WoMuyFabao0YGvLneRUznB8B4tYeHzhYIOh9kFLUxuaGPzQrdD0pYk0omi4I5W5pnG9gX42bMylSNhsE5Q20tO05QPFtTSVfOtiqFlskzlV7U2dDcQqkikW7l+DNk6vTSFW60IoOWouXsmoi1kLddi3gevBotgxM2KgTTpoo0SQ1TNdj4hOy5I+k+ljXAenTr8tcQSfbcmbEAE2bq6nqQfUaaWjqZhtXdPEPxNlPKhOneaih1tY2OAF73XQxmkb2EIAq7XaVDC3vULymS6Y4xbWGSJKXSbEPBaUCdXTFAx5dDT1WUxPbYX4AIlUdWDlCZOv4lwRZOMqaHoFWK2jqeDVHNlWlMJiYR/Hq9PkYy+JORlHoYWgjdMvMgWttKaF3N7NI/Yly5qGN+cavwYcf0bFB7kiQOmllqbgXI2GptzkCwkulq+N7p74uQ9YObMQVqqQAwjDXLsABZxR1NCU0aMrzi8W/+TVnPjGaSjx4Ryg73TU8FQT08EtZHpaDCJZN9s1J6OkMZQ5GAHDoqOpRnIWoG/KFImYr2psDCU5lEM6qNY6barJHsE0LQJsKUpuF/9TtxxqdalmQhamqTbxAC79K7pDnN6wGtOlkj3sy9XvADYOpqm20yGaMmciFTjTnD2UfJpUpilk43pRC4B2zRpE08LgD8RHNefTSH6pYr9Azw2iKSUppB+AFhYDPhZVd3N+qS62yAF5bluAplRugEkJaNKqSDRJK+eaiy3k+FBRDHzai6MHGH0Sz83/AqwGJq2oXRhI+cbm4kMpxi9JDRRsr0s0pSQ9BNDUX2kMCzE8Sd3ZXIyvydMU7wVEvkxTStK4FQErmUs0LUyBrLgbzNOIubauar58YKtHvkFCAlkhMkFi4MdQoim1TYmslBvMtUn50ovKQEgiVJpSkuLBghZ0KC0sJp/2EhX4zEn9+VIp513K3EOmXKUppR3+VyhbrdC0qL7cT03mvKF5C6FvN+X/ULUpGedcS8UAqxWaUqdU4XqT8xbS3FNSljHgbXL3U5IS/wxybhTHjXypEKHJuSd5/lBtICgTcu1o95OgA2K1RP2iM9X3FIWbmD+U5oBLgggtb5EZFnGSwqyeiDSl2fG5rEmbnQOW5vHLnjJk40Sa0h6fxQrdBIhDbpGvlFmeZufxpbUY3dLkNGTjRE1PSMqyv9AACMQoBksxOM2uxZDX05TnxIClFiJNiblnSphHshzCpBUlizKN1fB6GnlNVJmmkHXiHhddfMMXsnUAVvMRo931R0PShtZEyevaSokYaM0kpylRnkLGxQc2EjKaFoOlyALzqRpa1yavTSzPTQBywV108scdlPjkYKSkEzgKURpfmyivL+2VFt1BNu6TEo9qUjH9AbG6oCldxa1kb8Ji1BpbXyqvEU7VZSJQMLOnUQjRpFLGBWI1NQ60PxSFzVVLY2uE5XXew5IkAotkEzrSJJkvZVyg5fYTyeNRSBo1v85bWav/qYZQEHGINqWDIu9VhDLW5C90Al+2SDzf1eBa/a60Iae0uwKycYSmlKTyCq/y8kOqv6hLpywI41s2zs3tt1A25PRLcXDZxpEQnWjSk5IaAHJu+WwANUlyiMZpecfWpO8DP5znDoZq1heycbnsjtivt1iNv6fyLC9z51LY6L4nsiEnET9JAJZ+Y5oSzZGoHQKxOnM4qcANJCHgoVJyY2vSDyHvP0xUmwjYOFyGxLv70vQLsIAooykdWkXxsm5teP+hsod0q7hV0PbIi0X7v6R7QVaz/MVGLM63JzS9h1TdB6zm04AFRKeAaNJydrHFN1BwLAPCXUnxCi5a4/uAlb3cc2WJL2Cmkg5JQUETGQCr539JDCopXn5EVPN7uSv348M2rk9ICk1GQawOSPeJKVnEle4D9uOrZypcFO+4bOP2+bjC897Apj0SQIiKN96wPz7iTIXSuRhKhFO2ceQwfc2kcJnVxFkRFa/yssbPxVDPNhkqJkPzX1D7KrSioHi51D/obJPS+TR7yZKDS7/1C4fBTXuS4nX5MD/qfJrSGUN/pGloeBevbo+CJpDlihdxm/m4M4ZK50SNRM0O59p1C90gz+1NULyeMMPxuHOiqs/6ghbJVuy8jCBWM8VrC5n7R571VT6vbcObCG7a0++eBVldKF7x4MnHntdWPnPvzIkKzStVnOcGeG6F4vWEznrwmXvAuYkjpm6Cso3TLlZvgUu3qOJFggw+/NxE4DDKP4XRADamw2sPCYBJMqJ4XVGpPP7sS+D80n1h+ssBeOWBZ2XPLaeDK1LhGeeXAmfQDh0yVCUbV0VSwHPDivcFzqCFzhEeXIgwWkpJ7eYtUlr13DJOo/MLnCNccRa04rnpN+ARhAqrA+sqzS4+7Sxo8Dzv/C4WJden3etLobB69fdlzvPWnMketpXtTZrTLwRID01f6Ex2+Fz9JI0i0cZpj4ZgkFktPezZ5+rr7kb43AifNKfQCNBnsJ9/N4LufoupQNPz7YPooU17GK9wv4X2jhKGAbjiWwYYj7zKHSX6e2YoxjdJKuWaOF7mnpm3iruCMPq3NKnlo+CjRNNXuivoreq+p8wjP4Y37ns6AHL2Yvc93byz63CxO/jeUXZSK76zK0DR77mz6+2Oe9eGY3bvmpXfu3Ya/qZ7197+D+7Oe/v37z98E+6w7KTfvMMy7eTte9U7LN/+/XtIMf71u2Qxhucf3Qd8fvX2Yfzrdzpj/Ov3cuf4x+9WJ+id0oyBtzzvOGNyevqFzSPoTvYj20VBDB1a1o4D5Nqj/eRXkRNCstovNr6DT7bOEOAfKPvkbxZ73Z3AvxLdpDdcTXfj03g3XQ17lQeZGxgYGBgYGBgYGBgYGBgYGBgYGBgYGBgYGBgYGBgYGBj8UvwPc336X5TsxLgAAAAASUVORK5CYII=;" vertex="1" parent="1">
          <mxGeometry x="890" y="419" width="71" height="71" as="geometry" />
        </mxCell>
        <mxCell id="n5wzkKO4SlnLm2nGRkyD-12" value="&lt;h1&gt;Wordpress&lt;/h1&gt;&lt;div&gt;WP connector, direct rent&amp;nbsp;&lt;/div&gt;&lt;div&gt;storage room from customer web&lt;/div&gt;" style="text;html=1;strokeColor=none;fillColor=none;spacing=5;spacingTop=-20;whiteSpace=wrap;overflow=hidden;rounded=0;" vertex="1" parent="1">
          <mxGeometry x="962" y="421" width="214.5" height="120" as="geometry" />
        </mxCell>
        <mxCell id="n5wzkKO4SlnLm2nGRkyD-13" value="" style="sketch=0;points=[[0,0,0],[0.25,0,0],[0.5,0,0],[0.75,0,0],[1,0,0],[0,1,0],[0.25,1,0],[0.5,1,0],[0.75,1,0],[1,1,0],[0,0.25,0],[0,0.5,0],[0,0.75,0],[1,0.25,0],[1,0.5,0],[1,0.75,0]];outlineConnect=0;fontColor=#232F3E;fillColor=#8C4FFF;strokeColor=#ffffff;dashed=0;verticalLabelPosition=bottom;verticalAlign=top;align=center;html=1;fontSize=12;fontStyle=0;aspect=fixed;shape=mxgraph.aws4.resourceIcon;resIcon=mxgraph.aws4.serverless;" vertex="1" parent="1">
          <mxGeometry x="892" y="560" width="78" height="78" as="geometry" />
        </mxCell>
        <mxCell id="n5wzkKO4SlnLm2nGRkyD-14" value="&lt;h1&gt;Serverless&lt;/h1&gt;&lt;div&gt;Api connection&lt;/div&gt;&lt;div&gt;JWT auth&lt;/div&gt;" style="text;html=1;strokeColor=none;fillColor=none;spacing=5;spacingTop=-20;whiteSpace=wrap;overflow=hidden;rounded=0;" vertex="1" parent="1">
          <mxGeometry x="972" y="551" width="214.5" height="120" as="geometry" />
        </mxCell>
      </root>
    </mxGraphModel>
  </diagram>
</mxfile>
